<svg style="position: absolute; width: 0; height: 0; overflow: hidden;" version="1.1" xmlns="http://www.w3.org/2000/svg">
<defs>

<symbol id="star" viewBox="0 0 32 32">
<title>star</title>
<path d="M16.933 3.153l3.348 7.105c0.154 0.326 0.451 0.552 0.794 0.604l7.486 1.139c0.854 0.13 1.195 1.229 0.577 1.86l-5.422 5.535c-0.245 0.25-0.357 0.611-0.299 0.965l1.28 7.816c0.146 0.891-0.747 1.57-1.51 1.149l-6.702-3.69c-0.303-0.167-0.666-0.167-0.969 0l-6.702 3.69c-0.764 0.421-1.656-0.259-1.51-1.149l1.28-7.816c0.058-0.354-0.054-0.715-0.299-0.965l-5.422-5.535c-0.618-0.631-0.277-1.73 0.577-1.86l7.494-1.14c0.339-0.052 0.632-0.275 0.784-0.596l3.351-7.111c0.382-0.81 1.485-0.81 1.867 0z"></path>
</symbol>

<symbol id="clock" viewBox="0 0 32 32">
<title>clock</title>
<path d="M16 4c-7.732 0-14 6.268-14 14s6.268 14 14 14 14-6.268 14-14-6.268-14-14-14zM16 29.25c-6.213 0-11.25-5.037-11.25-11.25s5.037-11.25 11.25-11.25c6.213 0 11.25 5.037 11.25 11.25s-5.037 11.25-11.25 11.25zM29.212 8.974c0.501-0.877 0.788-1.892 0.788-2.974 0-3.314-2.686-6-6-6-1.932 0-3.65 0.913-4.747 2.331 4.121 0.851 7.663 3.287 9.96 6.643v0zM12.748 2.331c-1.097-1.418-2.816-2.331-4.748-2.331-3.314 0-6 2.686-6 6 0 1.082 0.287 2.098 0.788 2.974 2.297-3.356 5.838-5.792 9.96-6.643z"></path>
<path d="M16 18v-8h-2v10h8v-2z"></path>
</symbol>

<symbol id="calendar" viewBox="0 0 32 32">
<title>calendar</title>
<path d="M10 12h4v4h-4zM16 12h4v4h-4zM22 12h4v4h-4zM4 24h4v4h-4zM10 24h4v4h-4zM16 24h4v4h-4zM10 18h4v4h-4zM16 18h4v4h-4zM22 18h4v4h-4zM4 18h4v4h-4zM26 0v2h-4v-2h-14v2h-4v-2h-4v32h30v-32h-4zM28 30h-26v-22h26v22z"></path>
</symbol>

</defs>
</svg>
